<svg width="372" height="101" viewBox="0 0 372 101" fill="none" xmlns="http://www.w3.org/2000/svg">
<path d="M46.358 97.1317C44.5104 98.0848 41.8229 98.9818 38.2957 99.8227C34.8245 100.608 31.2692 101 27.63 101C18.504 101 11.6175 98.309 6.97049 92.9271C2.3235 87.5452 0 80.7057 0 72.4086C0 66.0176 1.31571 60.3273 3.94714 55.3378C7.02648 49.4514 11.6455 45.3589 17.8041 43.0604C21.2194 41.827 24.7746 41.2103 28.4698 41.2103C32.165 41.2103 35.7203 41.4906 39.1355 42.0512C42.5508 42.6119 44.7903 43.1164 45.8541 43.5649C46.19 45.6392 46.358 47.8256 46.358 50.1241C46.358 52.3666 46.302 54.8894 46.19 57.6924L41.403 58.3652C40.1713 51.862 39.0795 48.2741 38.1277 47.6013C37.6238 47.2089 36.3081 46.7884 34.1806 46.34C32.109 45.8915 30.0375 45.6672 27.9659 45.6672C21.8073 45.6672 17.1603 47.9377 14.025 52.4787C10.8896 57.0197 9.32198 62.9902 9.32198 70.3904C9.32198 79.136 11.3095 85.6391 15.2847 89.8998C19.2598 94.1605 24.1868 96.2908 30.0655 96.2908C33.1448 96.2908 35.8602 95.8423 38.2117 94.9453V83.2565C38.2117 81.5186 37.8758 80.3413 37.2039 79.7246C36.5881 79.1079 34.7965 78.5473 31.8291 78.0428L32.333 74.7632H51.9847L52.3207 78.0428L48.0376 79.0519C46.9178 79.2761 46.358 80.0049 46.358 81.2383V97.1317Z" fill="#27272A"/>
<path d="M57.7513 89.8998C57.7513 85.6952 59.5429 82.5557 63.1261 80.4814C66.7093 78.4072 72.5321 77.342 80.5943 77.2859V74.595C80.5943 67.307 77.9629 63.663 72.7 63.663C70.1806 63.663 68.5849 64.0274 67.9131 64.7562C67.2972 65.485 66.6253 67.8676 65.8975 71.904L61.3625 71.3995C60.9146 69.6616 60.6906 67.8676 60.6906 66.0176C60.6906 64.1115 60.7186 62.8781 60.7746 62.3175C64.0779 60.2432 68.417 59.2061 73.7918 59.2061C79.1666 59.2061 82.8898 60.2432 84.9614 62.3175C87.0889 64.3918 88.1527 67.8115 88.1527 72.5768V91.918C88.1527 93.3756 88.4886 94.4127 89.1605 95.0294C89.8883 95.59 91.6799 96.1507 94.5353 96.7113L94.0314 99.4022L83.9536 100.495C83.3937 100.495 82.8058 99.9628 82.19 98.8977C81.5741 97.8325 81.2662 96.8514 81.2662 95.9544C81.2662 95.0014 81.2942 94.3006 81.3502 93.8521L80.6783 93.5999L79.6705 95.1135C77.0391 99.0378 73.4279 101 68.8369 101C65.7015 101 63.0701 100.019 60.9426 98.0567C58.815 96.0946 57.7513 93.3756 57.7513 89.8998ZM65.8975 89.143C65.8975 91.1612 66.4294 92.7029 67.4932 93.768C68.5569 94.7771 70.0686 95.2817 72.0282 95.2817C73.9877 95.2817 76.1993 94.3287 78.6627 92.4226C79.9505 91.4135 80.5943 90.3483 80.5943 89.227V80.986C75.5554 81.0981 71.8322 81.7709 69.4247 83.0042C67.0732 84.2376 65.8975 86.2838 65.8975 89.143Z" fill="#27272A"/>
<path d="M100.558 100.243L100.054 96.9635C103.022 96.459 104.841 95.8984 105.513 95.2817C106.185 94.665 106.521 93.6279 106.521 92.1703V67.9517C106.521 66.4941 106.129 65.4569 105.345 64.8403C104.617 64.1675 102.686 63.6069 99.5506 63.1584L100.054 60.4675L111.476 59.3743C111.868 59.3743 112.288 59.9349 112.736 61.0561C113.184 62.1773 113.408 63.3546 113.408 64.588C113.408 65.7653 113.296 67.1388 113.072 68.7085L113.744 68.9608L114.835 66.5221C115.843 64.2797 117.355 62.5137 119.37 61.2243C121.442 59.8788 123.513 59.2061 125.585 59.2061C127.712 59.2061 129.672 59.6546 131.464 60.5516C131.464 65.1486 131.044 69.7457 130.204 74.3427L126.089 74.7632C125.641 70.054 125.193 67.3911 124.745 66.7744C124.297 66.1016 123.541 65.7653 122.478 65.7653C121.47 65.7653 120.266 66.2418 118.866 67.1949C117.467 68.0918 116.319 69.0729 115.423 70.1381C114.527 71.1472 114.079 72.829 114.079 75.1836V94.1885C114.079 94.9173 114.219 95.3938 114.499 95.6181C114.835 95.7863 115.255 95.8984 115.759 95.9544L123.401 96.9635L123.065 100.243H100.558Z" fill="#27272A"/>
<path d="M163.682 94.693C160.435 98.8977 156.544 101 152.009 101C147.474 101 143.751 99.206 140.839 95.6181C137.928 91.9741 136.472 87.0126 136.472 80.7337C136.472 74.4548 138.124 69.2972 141.427 65.2607C144.731 61.2243 149.35 59.2061 155.284 59.2061C159.371 59.2061 162.395 59.9349 164.354 61.3925L164.942 61.1402C164.718 60.2432 164.942 48.8347 164.942 47.2649L165.741 15.3099L164.901 11.1053C161.542 9.42345 157 3.49996 159 1.49998C161 -0.5 164.901 1.85515 168.26 6.05978C171.62 2.69606 175.66 1.65904 176.5 2.49998C177.34 3.34092 176.659 7.74162 170.78 11.1053L169.94 15.3099L172.165 92.0021C172.165 93.4597 172.501 94.4968 173.172 95.1135C173.9 95.6741 175.692 96.2347 178.547 96.7954L178.043 99.4863L167.966 100.58C167.406 100.58 166.79 100.019 166.118 98.8977C165.446 97.7764 165.11 96.7673 165.11 95.8703C165.11 94.9734 165.138 94.3006 165.194 93.8521L164.522 93.5999L163.682 94.693ZM144.619 78.7155C144.619 84.2656 145.486 88.3581 147.222 90.993C149.014 93.6279 151.253 94.9453 153.941 94.9453C156.628 94.9453 159.427 93.9923 162.339 92.0862C163.85 91.0771 164.606 89.7877 164.606 88.2179V68.1199C162.311 65.3728 158.728 63.9993 153.857 63.9993C151.449 63.9993 149.546 64.7842 148.146 66.3539C145.794 68.9888 144.619 73.1093 144.619 78.7155Z" fill="#27272A"/>
<path d="M201.922 101C196.268 101 191.873 99.0659 188.737 95.1976C185.658 91.3294 184.118 86.452 184.118 80.5655C184.118 74.623 185.91 69.5775 189.493 65.4289C193.076 61.2804 197.807 59.2061 203.686 59.2061C213.204 59.2061 218.187 65.0645 218.635 76.7814L216.451 78.3791L192.097 79.7246C192.097 90.096 196.52 95.2817 205.366 95.2817C209.229 95.2817 213.008 94.3287 216.703 92.4226L218.467 95.1976C216.619 96.7113 214.212 98.0567 211.244 99.234C208.277 100.411 205.17 101 201.922 101ZM192.348 75.8564L209.733 74.3427C210.293 74.2866 210.573 73.7541 210.573 72.7449C210.573 70.2782 209.901 68.1479 208.557 66.3539C207.269 64.56 205.058 63.663 201.922 63.663C198.787 63.663 196.492 64.7281 195.036 66.8585C193.636 68.9328 192.74 71.9321 192.348 75.8564Z" fill="#27272A"/>
<path d="M225.315 100.243L224.811 96.9635C227.554 96.4029 229.206 95.8423 229.766 95.2817C230.382 94.665 230.689 93.6279 230.689 92.1703V67.9517C230.689 66.4941 230.326 65.485 229.598 64.9244C228.926 64.3077 227.162 63.719 224.307 63.1584L224.811 60.4675L235.644 59.3743C236.036 59.3743 236.428 60.1591 236.82 61.7289C237.268 63.2986 237.492 64.6721 237.492 65.8494V66.3539L238.164 66.6062L239.172 65.4289C242.699 61.2804 247.01 59.2061 252.105 59.2061C255.688 59.2061 258.515 60.2993 260.587 62.4857C262.659 64.616 263.694 67.6153 263.694 71.4836V94.1885C263.694 94.8612 263.834 95.3097 264.114 95.534C264.45 95.7022 264.87 95.8423 265.374 95.9544L269.489 96.9635L269.153 100.243H251.181L250.677 96.9635C253.197 96.459 254.736 95.8984 255.296 95.2817C255.856 94.665 256.136 93.6279 256.136 92.1703V74.0063C256.136 71.3714 255.66 69.2691 254.708 67.6994C253.756 66.0736 251.881 65.2607 249.081 65.2607C246.338 65.2607 243.343 66.3539 240.095 68.5403C239.592 68.8767 239.228 69.129 239.004 69.2972C238.5 69.8578 238.248 70.8949 238.248 72.4086V94.1044C238.248 94.7211 238.332 95.1415 238.5 95.3658C238.724 95.59 239.2 95.7863 239.927 95.9544L243.623 96.9635L243.287 100.243H225.315Z" fill="#27272A"/>
<path d="M275.343 100.243L274.839 96.9635C277.582 96.4029 279.234 95.8423 279.794 95.2817C280.41 94.665 280.718 93.6279 280.718 92.1703V68.0358C280.718 66.8585 280.27 66.0176 279.374 65.513C278.478 64.9524 276.799 64.4198 274.335 63.9153L274.839 61.2243C280.83 60.4394 285.001 60.047 287.352 60.047L288.276 60.8879V94.1885C288.276 94.8612 288.416 95.3097 288.696 95.534C289.032 95.7022 289.452 95.8423 289.956 95.9544L294.071 96.9635L293.735 100.243H275.343ZM291 45C291 46.4015 286.675 48.1059 285.835 47.265C286.675 48.1059 285.456 53 284 53C282.6 53 280.796 48.1059 281.636 47.265C280.796 48.1059 276 46.4576 276 45C276 43.4863 280.796 42.2195 281.636 43.0604C280.796 42.2195 282.064 37 283.5 37C285.091 37 286.675 42.2195 285.835 43.0604C286.675 42.2195 291 43.4257 291 45Z" fill="#27272A"/>
<path d="M299.745 100.243V98.0567L320.993 67.2789C321.889 66.1577 322.505 65.513 322.84 65.3448L322.673 64.7562H313.099C310.915 64.7562 309.067 64.8403 307.556 65.0085C307.164 65.0645 306.828 65.485 306.548 66.2698C306.268 66.9986 305.736 68.9328 304.952 72.0722L301.089 71.6517C300.977 69.8578 300.921 68.0638 300.921 66.2698C300.921 64.4759 301.089 62.5417 301.425 60.4675H332.162V62.8221L311.167 93.4317C310.439 94.4968 309.823 95.1415 309.319 95.3658L309.487 95.9544L313.602 95.8703C319.593 95.7582 323.12 95.59 324.184 95.3658C325.248 95.0855 326.396 92.2824 327.627 86.9566L331.995 87.2929C331.883 91.7778 331.575 96.0946 331.071 100.243H299.745Z" fill="#27272A"/>
<path d="M355.288 101C349.633 101 345.238 99.0659 342.102 95.1976C339.023 91.3294 337.483 86.452 337.483 80.5655C337.483 74.623 339.275 69.5775 342.858 65.4289C346.442 61.2804 351.173 59.2061 357.051 59.2061C366.569 59.2061 371.552 65.0645 372 76.7814L369.816 78.3791L345.462 79.7246C345.462 90.096 349.885 95.2817 358.731 95.2817C362.594 95.2817 366.373 94.3287 370.068 92.4226L371.832 95.1976C369.984 96.7113 367.577 98.0567 364.61 99.234C361.642 100.411 358.535 101 355.288 101ZM345.714 75.8564L363.098 74.3427C363.658 74.2866 363.938 73.7541 363.938 72.7449C363.938 70.2782 363.266 68.1479 361.922 66.3539C360.634 64.56 358.423 63.663 355.288 63.663C352.152 63.663 349.857 64.7281 348.401 66.8585C347.001 68.9328 346.106 71.9321 345.714 75.8564Z" fill="#27272A"/>
</svg>
