<svg width="372" height="101" viewBox="0 0 372 101" fill="none" xmlns="http://www.w3.org/2000/svg">
<path d="M46.358 96.3544C44.5104 97.3074 41.8229 98.2044 38.2957 99.0453C34.8245 99.8302 31.2692 100.223 27.63 100.223C18.504 100.223 11.6175 97.5317 6.97049 92.1498C2.3235 86.7679 0 79.9283 0 71.6312C0 65.2402 1.31571 59.55 3.94714 54.5605C7.02648 48.674 11.6455 44.5815 17.8041 42.283C21.2194 41.0497 24.7746 40.433 28.4698 40.433C32.165 40.433 35.7203 40.7133 39.1355 41.2739C42.5508 41.8345 44.7903 42.3391 45.8541 42.7876C46.19 44.8618 46.358 47.0482 46.358 49.3468C46.358 51.5892 46.302 54.112 46.19 56.9151L41.403 57.5878C40.1713 51.0847 39.0795 47.4967 38.1277 46.824C37.6238 46.4316 36.3081 46.0111 34.1806 45.5626C32.109 45.1141 30.0375 44.8899 27.9659 44.8899C21.8073 44.8899 17.1603 47.1604 14.025 51.7014C10.8896 56.2423 9.32198 62.2129 9.32198 69.613C9.32198 78.3586 11.3095 84.8618 15.2847 89.1224C19.2598 93.3831 24.1868 95.5135 30.0655 95.5135C33.1448 95.5135 35.8602 95.065 38.2117 94.168V82.4791C38.2117 80.7412 37.8758 79.5639 37.2039 78.9473C36.5881 78.3306 34.7965 77.77 31.8291 77.2654L32.333 73.9858H51.9847L52.3207 77.2654L48.0376 78.2745C46.9178 78.4988 46.358 79.2276 46.358 80.4609V96.3544Z" fill="white"/>
<path d="M57.7513 89.1224C57.7513 84.9178 59.5429 81.7784 63.1261 79.7041C66.7093 77.6298 72.5321 76.5647 80.5943 76.5086V73.8176C80.5943 66.5296 77.9629 62.8856 72.7 62.8856C70.1806 62.8856 68.5849 63.25 67.9131 63.9788C67.2972 64.7076 66.6253 67.0902 65.8975 71.1267L61.3625 70.6221C60.9146 68.8842 60.6906 67.0902 60.6906 65.2402C60.6906 63.3341 60.7186 62.1008 60.7746 61.5402C64.0779 59.4659 68.417 58.4287 73.7918 58.4287C79.1666 58.4287 82.8898 59.4659 84.9614 61.5402C87.0889 63.6144 88.1527 67.0342 88.1527 71.7994V91.1407C88.1527 92.5983 88.4886 93.6354 89.1605 94.2521C89.8883 94.8127 91.6799 95.3733 94.5353 95.9339L94.0314 98.6249L83.9536 99.7181C83.3937 99.7181 82.8058 99.1855 82.19 98.1203C81.5741 97.0552 81.2662 96.0741 81.2662 95.1771C81.2662 94.224 81.2942 93.5233 81.3502 93.0748L80.6783 92.8225L79.6705 94.3362C77.0391 98.2605 73.4279 100.223 68.8369 100.223C65.7015 100.223 63.0701 99.2416 60.9426 97.2794C58.815 95.3172 57.7513 92.5983 57.7513 89.1224ZM65.8975 88.3656C65.8975 90.3838 66.4294 91.9255 67.4932 92.9907C68.5569 93.9998 70.0686 94.5044 72.0282 94.5044C73.9877 94.5044 76.1993 93.5513 78.6627 91.6452C79.9505 90.6361 80.5943 89.5709 80.5943 88.4497V80.2087C75.5554 80.3208 71.8322 80.9935 69.4247 82.2269C67.0732 83.4602 65.8975 85.5065 65.8975 88.3656Z" fill="white"/>
<path d="M100.558 99.4658L100.054 96.1862C103.022 95.6816 104.841 95.121 105.513 94.5044C106.185 93.8877 106.521 92.8505 106.521 91.3929V67.1743C106.521 65.7167 106.129 64.6796 105.345 64.0629C104.617 63.3902 102.686 62.8296 99.5506 62.3811L100.054 59.6901L111.476 58.5969C111.868 58.5969 112.288 59.1575 112.736 60.2788C113.184 61.4 113.408 62.5773 113.408 63.8107C113.408 64.9879 113.296 66.3614 113.072 67.9312L113.744 68.1834L114.835 65.7448C115.843 63.5023 117.355 61.7364 119.37 60.447C121.442 59.1015 123.513 58.4287 125.585 58.4287C127.712 58.4287 129.672 58.8772 131.464 59.7742C131.464 64.3713 131.044 68.9683 130.204 73.5654L126.089 73.9858C125.641 69.2766 125.193 66.6137 124.745 65.997C124.297 65.3243 123.541 64.9879 122.478 64.9879C121.47 64.9879 120.266 65.4645 118.866 66.4175C117.467 67.3145 116.319 68.2956 115.423 69.3607C114.527 70.3699 114.079 72.0517 114.079 74.4063V93.4112C114.079 94.14 114.219 94.6165 114.499 94.8407C114.835 95.0089 115.255 95.121 115.759 95.1771L123.401 96.1862L123.065 99.4658H100.558Z" fill="white"/>
<path d="M163.682 93.9157C160.435 98.1203 156.544 100.223 152.009 100.223C147.474 100.223 143.751 98.4287 140.839 94.8407C137.928 91.1967 136.472 86.2353 136.472 79.9564C136.472 73.6775 138.124 68.5198 141.427 64.4834C144.731 60.447 149.35 58.4287 155.284 58.4287C159.371 58.4287 162.395 59.1575 164.354 60.6151L164.942 60.3629C164.718 59.4659 164.942 48.0573 164.942 46.4876L165.741 14.5325L164.901 10.3279C161.542 8.64611 157 2.72262 159 0.722638C161 -1.27734 164.901 1.07781 168.26 5.28244C171.62 1.91871 175.66 0.881697 176.5 1.72264C177.34 2.56358 176.659 6.96428 170.78 10.3279L169.94 14.5325L172.165 91.2248C172.165 92.6824 172.501 93.7195 173.172 94.3362C173.9 94.8968 175.692 95.4574 178.547 96.018L178.043 98.709L167.966 99.8022C167.406 99.8022 166.79 99.2416 166.118 98.1203C165.446 96.9991 165.11 95.99 165.11 95.093C165.11 94.196 165.138 93.5233 165.194 93.0748L164.522 92.8225L163.682 93.9157ZM144.619 77.9382C144.619 83.4883 145.486 87.5807 147.222 90.2156C149.014 92.8505 151.253 94.168 153.941 94.168C156.628 94.168 159.427 93.2149 162.339 91.3088C163.85 90.2997 164.606 89.0103 164.606 87.4406V67.3425C162.311 64.5955 158.728 63.222 153.857 63.222C151.449 63.222 149.546 64.0069 148.146 65.5766C145.794 68.2115 144.619 72.332 144.619 77.9382Z" fill="white"/>
<path d="M201.922 100.223C196.268 100.223 191.873 98.2885 188.737 94.4203C185.658 90.552 184.118 85.6747 184.118 79.7882C184.118 73.8457 185.91 68.8001 189.493 64.6516C193.076 60.503 197.807 58.4287 203.686 58.4287C213.204 58.4287 218.187 64.2872 218.635 76.004L216.451 77.6018L192.097 78.9473C192.097 89.3187 196.52 94.5044 205.366 94.5044C209.229 94.5044 213.008 93.5513 216.703 91.6452L218.467 94.4203C216.619 95.9339 214.212 97.2794 211.244 98.4567C208.277 99.634 205.17 100.223 201.922 100.223ZM192.348 75.079L209.733 73.5654C210.293 73.5093 210.573 72.9767 210.573 71.9676C210.573 69.5009 209.901 67.3706 208.557 65.5766C207.269 63.7826 205.058 62.8856 201.922 62.8856C198.787 62.8856 196.492 63.9508 195.036 66.0811C193.636 68.1554 192.74 71.1547 192.348 75.079Z" fill="white"/>
<path d="M225.315 99.4658L224.811 96.1862C227.554 95.6256 229.206 95.065 229.766 94.5044C230.382 93.8877 230.689 92.8505 230.689 91.3929V67.1743C230.689 65.7167 230.326 64.7076 229.598 64.147C228.926 63.5303 227.162 62.9417 224.307 62.3811L224.811 59.6901L235.644 58.5969C236.036 58.5969 236.428 59.3818 236.82 60.9515C237.268 62.5212 237.492 63.8947 237.492 65.072V65.5766L238.164 65.8289L239.172 64.6516C242.699 60.503 247.01 58.4287 252.105 58.4287C255.688 58.4287 258.515 59.5219 260.587 61.7083C262.659 63.8387 263.694 66.838 263.694 70.7062V93.4112C263.694 94.0839 263.834 94.5324 264.114 94.7566C264.45 94.9248 264.87 95.065 265.374 95.1771L269.489 96.1862L269.153 99.4658H251.181L250.677 96.1862C253.197 95.6816 254.736 95.121 255.296 94.5044C255.856 93.8877 256.136 92.8505 256.136 91.3929V73.229C256.136 70.5941 255.66 68.4918 254.708 66.9221C253.756 65.2963 251.881 64.4834 249.081 64.4834C246.338 64.4834 243.343 65.5766 240.095 67.763C239.592 68.0993 239.228 68.3516 239.004 68.5198C238.5 69.0804 238.248 70.1176 238.248 71.6312V93.3271C238.248 93.9437 238.332 94.3642 238.5 94.5884C238.724 94.8127 239.2 95.0089 239.927 95.1771L243.623 96.1862L243.287 99.4658H225.315Z" fill="white"/>
<path d="M275.343 99.4658L274.839 96.1862C277.582 95.6256 279.234 95.065 279.794 94.5044C280.41 93.8877 280.718 92.8505 280.718 91.3929V67.2584C280.718 66.0811 280.27 65.2402 279.374 64.7357C278.478 64.1751 276.799 63.6425 274.335 63.1379L274.839 60.447C280.83 59.6621 285.001 59.2697 287.352 59.2697L288.276 60.1106V93.4112C288.276 94.0839 288.416 94.5324 288.696 94.7566C289.032 94.9248 289.452 95.065 289.956 95.1771L294.071 96.1862L293.735 99.4658H275.343ZM291 44.2226C291 45.6242 286.675 47.3286 285.835 46.4877C286.675 47.3286 285.456 52.2226 284 52.2226C282.6 52.2226 280.796 47.3286 281.636 46.4877C280.796 47.3286 276 45.6802 276 44.2226C276 42.709 280.796 41.4421 281.636 42.2831C280.796 41.4421 282.064 36.2226 283.5 36.2226C285.091 36.2226 286.675 41.4421 285.835 42.2831C286.675 41.4421 291 42.6484 291 44.2226Z" fill="white"/>
<path d="M299.745 99.4658V97.2794L320.993 66.5016C321.889 65.3804 322.505 64.7357 322.84 64.5675L322.673 63.9788H313.099C310.915 63.9788 309.067 64.0629 307.556 64.2311C307.164 64.2872 306.828 64.7076 306.548 65.4925C306.268 66.2213 305.736 68.1554 304.952 71.2949L301.089 70.8744C300.977 69.0804 300.921 67.2865 300.921 65.4925C300.921 63.6985 301.089 61.7644 301.425 59.6901H332.162V62.0447L311.167 92.6543C310.439 93.7195 309.823 94.3642 309.319 94.5884L309.487 95.1771L313.602 95.093C319.593 94.9809 323.12 94.8127 324.184 94.5884C325.248 94.3081 326.396 91.5051 327.627 86.1792L331.995 86.5156C331.883 91.0005 331.575 95.3173 331.071 99.4658H299.745Z" fill="white"/>
<path d="M355.288 100.223C349.633 100.223 345.238 98.2885 342.102 94.4203C339.023 90.552 337.483 85.6747 337.483 79.7882C337.483 73.8457 339.275 68.8001 342.858 64.6516C346.442 60.503 351.173 58.4287 357.051 58.4287C366.569 58.4287 371.552 64.2872 372 76.004L369.816 77.6018L345.462 78.9473C345.462 89.3187 349.885 94.5044 358.731 94.5044C362.594 94.5044 366.373 93.5513 370.068 91.6452L371.832 94.4203C369.984 95.9339 367.577 97.2794 364.61 98.4567C361.642 99.634 358.535 100.223 355.288 100.223ZM345.714 75.079L363.098 73.5654C363.658 73.5093 363.938 72.9767 363.938 71.9676C363.938 69.5009 363.266 67.3706 361.922 65.5766C360.634 63.7826 358.423 62.8856 355.288 62.8856C352.152 62.8856 349.857 63.9508 348.401 66.0811C347.001 68.1554 346.106 71.1547 345.714 75.079Z" fill="white"/>
</svg>
